<?xml version="1.0" standalone="no"?>
<!DOCTYPE svg PUBLIC "-//W3C//DTD SVG 20010904//EN"
 "http://www.w3.org/TR/2001/REC-SVG-20010904/DTD/svg10.dtd">
<svg version="1.0" xmlns="http://www.w3.org/2000/svg"
 width="560.000000pt" height="560.000000pt" viewBox="0 0 560.000000 560.000000"
 preserveAspectRatio="xMidYMid meet">
<metadata>
Created by potrace 1.11, written by Peter Selinger 2001-2013
</metadata>
<g transform="translate(0.000000,560.000000) scale(0.100000,-0.100000)"
fill="#000000" stroke="none">
<path d="M1468 4703 c-218 -217 -278 -283 -278 -303 0 -20 118 -143 574 -599
477 -477 578 -573 601 -573 20 0 45 17 96 68 l69 68 70 -69 c39 -38 70 -74 70
-79 0 -12 -207 -216 -219 -216 -5 0 -15 7 -22 17 -8 9 -36 27 -64 39 l-50 24
-450 0 c-275 0 -464 -4 -487 -10 -48 -14 -132 -90 -151 -138 -8 -21 -18 -60
-22 -87 -7 -50 -43 -101 -90 -128 -14 -8 -122 -14 -338 -17 -301 -5 -319 -6
-333 -24 -11 -16 -14 -71 -14 -278 l0 -257 -39 -11 c-49 -13 -151 -80 -187
-123 -99 -117 -84 -274 40 -405 43 -47 77 -62 136 -62 l50 0 0 -138 c0 -104 4
-143 14 -158 14 -19 40 -19 1214 -22 l1200 -2 12 -31 c27 -64 134 -128 258
-154 82 -18 286 -19 350 -3 98 24 182 145 251 358 46 142 54 185 54 293 l0 99
486 -486 c381 -380 492 -486 511 -486 19 0 88 63 303 278 178 178 277 284 277
297 0 31 -1148 1175 -1179 1175 -15 0 -47 -23 -95 -70 l-71 -69 -72 71 -72 72
192 196 c209 213 249 269 293 405 21 65 27 100 27 185 0 58 -5 122 -11 143
l-11 39 42 -9 c23 -4 92 -8 152 -7 96 0 121 4 195 30 196 69 346 221 410 414
33 101 38 244 11 349 -87 347 -421 558 -766 486 -243 -51 -449 -259 -501 -505
-16 -73 -14 -209 2 -284 4 -17 3 -27 -2 -23 -27 16 -175 27 -245 17 -195 -27
-266 -72 -515 -320 l-194 -194 -75 74 -74 74 69 72 c47 48 70 80 70 95 0 18
-140 165 -578 602 -369 369 -584 577 -597 577 -12 0 -123 -104 -297 -277z
m297 -253 c-109 -109 -200 -198 -202 -197 -7 7 170 564 184 580 16 17 21 14
117 -83 l101 -100 -200 -200z m2863 194 c29 -20 29 -59 0 -78 -28 -17 -115 -7
-129 15 -13 21 -11 46 7 63 20 21 93 21 122 0z m185 -65 c142 -93 227 -253
227 -424 0 -79 -17 -115 -54 -115 -38 0 -47 22 -50 122 -2 77 -7 103 -29 152
-36 79 -84 136 -152 180 -59 40 -70 69 -39 100 23 23 45 20 97 -15z m-2665
-112 l102 -102 -205 -205 c-157 -156 -203 -198 -196 -175 164 563 171 585 190
585 3 0 52 -46 109 -103z m2489 -167 c61 -37 86 -138 48 -196 -58 -89 -204
-84 -248 9 -33 68 -11 152 47 188 41 25 112 25 153 -1z m-2302 -420 c-109
-109 -200 -198 -202 -196 -6 6 166 577 178 592 11 13 27 1 118 -90 l106 -106
-200 -200z m380 20 l100 -100 -205 -205 c-112 -112 -205 -203 -206 -202 -5 5
178 583 188 595 6 6 13 12 17 12 3 0 51 -45 106 -100z m1059 -60 c12 -12 11
-59 -2 -72 -12 -12 -150 -30 -179 -23 -32 8 -41 51 -16 76 31 32 170 45 197
19z m229 -63 c69 -44 145 -130 180 -201 53 -107 70 -264 36 -327 -11 -22 -61
-26 -77 -6 -6 7 -11 49 -10 94 1 164 -60 276 -198 366 -54 36 -64 59 -38 88
24 27 47 24 107 -14z m-1201 -284 c38 -37 68 -72 68 -78 0 -6 -27 -37 -60 -70
l-60 -59 -75 74 -75 74 62 63 c34 35 65 63 67 63 3 0 36 -30 73 -67z m-769
-982 c125 -49 245 -174 283 -294 84 -271 -70 -551 -343 -622 -194 -51 -412 38
-523 212 -52 82 -73 169 -68 283 4 87 9 107 41 175 59 123 150 204 292 257 71
26 236 21 318 -11z m1842 -91 l69 -70 -64 -65 -64 -65 -73 72 -73 72 62 63
c34 35 65 63 68 63 3 0 37 -31 75 -70z m505 -185 c0 -6 -90 -100 -200 -210
-110 -110 -200 -195 -200 -190 0 29 173 571 187 587 16 18 20 15 115 -79 54
-54 98 -102 98 -108z m-705 -15 l69 -70 -39 -40 -39 -40 -65 72 c-37 39 -68
75 -70 80 -3 9 56 67 69 68 3 0 37 -31 75 -70z m-775 -25 l0 -75 -80 0 -80 0
0 75 0 75 80 0 80 0 0 -75z m1570 -450 c-112 -112 -205 -203 -207 -201 -8 8
167 580 183 597 18 20 20 18 123 -86 l106 -105 -205 -205z m-1072 227 c90
-172 116 -314 70 -382 -40 -58 -48 -58 -116 -4 l-61 49 0 179 -1 180 27 28
c15 15 30 28 34 28 4 0 25 -35 47 -78z m1460 -205 l102 -102 -210 -210 c-155
-155 -208 -202 -201 -180 6 17 45 149 87 295 68 236 92 300 113 300 4 0 52
-46 109 -103z m172 -582 c-112 -112 -205 -203 -206 -202 -8 8 175 570 191 587
l19 21 100 -101 101 -100 -205 -205z"/>
<path d="M1793 2380 c-257 -53 -346 -380 -150 -556 168 -151 438 -88 516 121
31 81 26 187 -12 261 -64 126 -218 202 -354 174z"/>
</g>
</svg>
