<?xml version="1.0" encoding="UTF-8" standalone="no"?>
<svg
   xmlns:dc="http://purl.org/dc/elements/1.1/"
   xmlns:cc="http://creativecommons.org/ns#"
   xmlns:rdf="http://www.w3.org/1999/02/22-rdf-syntax-ns#"
   xmlns:svg="http://www.w3.org/2000/svg"
   xmlns="http://www.w3.org/2000/svg"
   xmlns:sodipodi="http://sodipodi.sourceforge.net/DTD/sodipodi-0.dtd"
   xmlns:inkscape="http://www.inkscape.org/namespaces/inkscape"
   width="286.77917mm"
   height="179.43417mm"
   viewBox="0 0 286.77918 179.43417"
   version="1.1"
   id="svg8"
   inkscape:version="1.0.1 (3bc2e813f5, 2020-09-07)"
   sodipodi:docname="nei2020.svg"
   inkscape:export-filename="C:\Users\35196\Pictures\nei2020.PNG"
   inkscape:export-xdpi="96"
   inkscape:export-ydpi="96">
  <defs
     id="defs2">
    <filter
       inkscape:collect="always"
       style="color-interpolation-filters:sRGB"
       id="filter1522"
       x="-1.2729589e-06"
       width="1.0000025"
       y="-1.1349509e-06"
       height="1.0000023">
      <feGaussianBlur
         inkscape:collect="always"
         stdDeviation="0.0001508776"
         id="feGaussianBlur1524" />
    </filter>
  </defs>
  <sodipodi:namedview
     id="base"
     pagecolor="#ffffff"
     bordercolor="#666666"
     borderopacity="1.0"
     inkscape:pageopacity="0.0"
     inkscape:pageshadow="2"
     inkscape:zoom="0.7"
     inkscape:cx="333.12918"
     inkscape:cy="463.01002"
     inkscape:document-units="mm"
     inkscape:current-layer="layer2"
     inkscape:document-rotation="0"
     showgrid="false"
     inkscape:window-width="1920"
     inkscape:window-height="1137"
     inkscape:window-x="-8"
     inkscape:window-y="-8"
     inkscape:window-maximized="1" />
  <metadata
     id="metadata5">
    <rdf:RDF>
      <cc:Work
         rdf:about="">
        <dc:format>image/svg+xml</dc:format>
        <dc:type
           rdf:resource="http://purl.org/dc/dcmitype/StillImage" />
        <dc:title></dc:title>
      </cc:Work>
    </rdf:RDF>
  </metadata>
  <g
     inkscape:label="earth"
     inkscape:groupmode="layer"
     id="layer1"
     transform="translate(-6.9169647,-80.500046)">
    <g
       id="g95"
       transform="matrix(0.26458333,0,0,0.26458333,6.9169647,127.11339)">
      <g
         id="g30">
	<g
   id="g18">
		<circle
   style="fill:#4aa4ff;fill-opacity:1"
   cx="251"
   cy="251"
   r="241"
   id="circle10" />

		<path
   style="fill:#4fc497"
   d="m 329,348 -12.409,20.502 c -3.657,6.042 -5.59,12.97 -5.59,20.032 v 0.615 c 0,5.994 -4.857,10.853 -10.851,10.856 v 0 c -10.407,0.005 -18.846,-8.43 -18.846,-18.836 v 0 c 0,-9.839 -3.908,-19.275 -10.865,-26.232 l -4.591,-4.591 c -8.773,-8.773 -13.701,-20.672 -13.701,-33.078 v -29.475 c 0,-9.307 -7.545,-16.851 -16.851,-16.851 H 231.8 c -13.885,0 -25.142,-11.256 -25.142,-25.142 v -15.343 c 0,-14.572 11.813,-26.384 26.384,-26.384 h 84.028 l 27.028,27.028 c 7.836,7.836 12.238,18.463 12.238,29.544 v 11.464 c 0,6.226 5.047,11.273 11.273,11.273 v 0 c 4.891,0 7.348,5.907 3.9,9.375 l -11.148,11.214 c -8.226,8.274 -15.422,17.512 -21.433,27.512 z"
   id="path12" />

		<path
   style="fill:#4fc497"
   d="M 283.829,57 H 320.5 c 6.904,0 12.5,5.596 12.5,12.5 v 0 c 0,6.904 -5.596,12.5 -12.5,12.5 h -50.671 -47.043 c -5.917,0 -10.713,4.797 -10.713,10.713 v 2.028 c 0,4.71 -1.871,9.227 -5.201,12.558 l -5.85,5.85 c -7.947,7.947 -12.412,18.727 -12.412,29.966 v 13.574 c 0,4.738 3.841,8.579 8.579,8.579 h 10.081 c 8.135,0 14.73,-6.595 14.73,-14.73 v 0 c 0,-5.014 1.992,-9.823 5.537,-13.368 l 5.17,-5.17 c 3.545,-3.545 8.354,-5.537 13.368,-5.537 h 19.931 c 11.693,0 22.907,4.645 31.176,12.913 l 9.952,9.952 c 11.65,11.65 18.195,27.451 18.195,43.927 v 18.036 h 16.397 c 15.792,0 30.937,6.273 42.104,17.44 l 7.969,7.969 c 8.395,8.395 22.007,8.395 30.402,0 v 0 c 8.55,-8.55 8.55,-22.413 0,-30.963 l -3.3,-3.3 c -7.056,-7.056 -2.059,-19.121 7.92,-19.121 H 453.024 481 c -0.166,-0.166 -0.286,-2.222 -0.37,-5.63 C 459.223,110.579 409.227,56.236 344.948,29 H 283.83 c -7.732,0 -14,6.268 -14,14 v 0 c -10e-4,7.732 6.267,14 13.999,14 z"
   id="path14" />

		<path
   style="fill:#4fc497"
   d="m 152.512,306.038 v -17.886 c 0,-12.81 -5.089,-25.094 -14.146,-34.152 l -0.193,-0.193 c -5.842,-5.842 -13.766,-9.124 -22.028,-9.124 v 0 c -7.917,0 -15.51,-3.145 -21.108,-8.743 l -8.781,-8.781 C 77.252,218.155 65.041,213.097 52.308,213.097 H 15.341 l -2.787,2.787 C 10.881,227.349 10,239.071 10,251 10,323.63 42.132,388.752 92.951,432.937 V 422.75 c 0,-20.407 8.107,-39.978 22.537,-54.409 l 19.149,-19.15 c 11.445,-11.444 17.875,-26.967 17.875,-43.153 z"
   id="path16" />

	</g>

	<g
   id="g28">
		<path
   style="fill:#333333"
   d="M 428.484,73.516 C 381.076,26.108 318.044,0 251,0 183.956,0 120.924,26.108 73.516,73.516 26.108,120.924 0,183.956 0,251 0,318.044 26.108,381.076 73.516,428.484 120.924,475.892 183.956,502 251,502 318.044,502 381.076,475.892 428.484,428.484 475.892,381.076 502,318.044 502,251 502,183.956 475.892,120.924 428.484,73.516 Z m 40.062,99.801 h -41.725 c -8.605,0 -16.294,5.137 -19.587,13.087 -3.293,7.951 -1.489,17.02 4.595,23.104 l 3.3,3.3 c 4.638,4.637 4.638,12.184 0,16.821 -2.171,2.172 -5.059,3.368 -8.13,3.368 -3.071,0 -5.958,-1.196 -8.13,-3.368 L 390.9,221.66 c -13.135,-13.135 -30.599,-20.369 -49.175,-20.369 h -6.397 v -8.036 c 0,-19.265 -7.502,-37.376 -21.124,-50.999 l -9.952,-9.952 c -10.216,-10.216 -23.799,-15.843 -38.247,-15.843 h -19.931 c -7.721,0 -14.98,3.007 -20.439,8.466 l -5.17,5.169 c -5.459,5.459 -8.466,12.718 -8.466,20.439 0,2.608 -2.122,4.73 -4.73,4.73 h -8.66 v -12.154 c 0,-8.648 3.368,-16.78 9.483,-22.895 l 5.849,-5.849 c 5.244,-5.243 8.131,-12.214 8.131,-19.629 V 92.71 c 0,-0.394 0.32,-0.713 0.713,-0.713 H 320.5 c 12.407,0 22.5,-10.093 22.5,-22.5 C 343,57.09 332.907,47 320.5,47 h -36.671 c -2.206,0 -4,-1.794 -4,-4 0,-2.206 1.794,-4 4,-4 h 58.868 c 58.354,25.338 104.274,74.079 125.849,134.317 z m -109.824,118.12 -5.452,5.484 c -8.784,8.835 -16.493,18.73 -22.913,29.41 l -9.918,16.5 -12.403,20.492 c -4.603,7.603 -7.036,16.32 -7.036,25.21 v 0.615 c 0,0.472 -0.384,0.856 -0.856,0.856 -0.001,0 -0.003,0 -0.004,0 -2.359,0 -4.578,-0.918 -6.247,-2.586 -1.67,-1.669 -2.589,-3.888 -2.589,-6.25 0,-12.58 -4.899,-24.407 -13.794,-33.303 l -4.591,-4.591 c -6.947,-6.947 -10.773,-16.183 -10.773,-26.007 v -29.475 c 0,-14.806 -12.045,-26.851 -26.852,-26.851 H 231.8 c -8.349,0 -15.142,-6.792 -15.142,-15.142 v -15.343 c 0,-9.034 7.35,-16.384 16.384,-16.384 h 79.886 l 24.099,24.1 c 6.003,6.003 9.309,13.984 9.309,22.473 v 11.464 c 0,8.56 5.082,15.955 12.386,19.328 z M 20,251 c 0,-9.444 0.583,-18.752 1.69,-27.902 h 30.619 c 10.153,0 19.698,3.954 26.876,11.133 l 8.781,8.78 c 7.527,7.527 17.534,11.672 28.179,11.672 5.65,0 10.962,2.2 14.957,6.195 l 0.193,0.193 c 7.233,7.233 11.217,16.851 11.217,27.081 v 17.886 c 0,13.63 -5.308,26.444 -14.945,36.082 l -19.15,19.15 C 94.975,374.713 86.478,391.782 83.837,410.272 44.303,368.799 20,312.684 20,251 Z m 231,231 c -56.288,0 -107.93,-20.247 -148.049,-53.827 v -5.423 c 0,-17.881 6.963,-34.693 19.607,-47.337 l 19.15,-19.15 c 13.415,-13.416 20.803,-31.252 20.803,-50.224 v -17.886 c 0,-15.573 -6.064,-30.213 -17.075,-41.224 l -0.193,-0.192 c -7.772,-7.772 -18.106,-12.053 -29.099,-12.053 -5.302,0 -10.287,-2.065 -14.036,-5.814 l -8.781,-8.781 C 82.37,209.133 67.803,203.099 52.308,203.099 h -27.3 C 47.126,98.635 140.047,20 251,20 c 7.743,0 15.396,0.39 22.946,1.138 -8.316,3.774 -14.117,12.151 -14.117,21.862 0,13.234 10.766,24 24,24 H 320.5 c 1.378,0 2.5,1.122 2.5,2.5 0,1.378 -1.122,2.5 -2.5,2.5 h -97.713 c -11.421,0 -20.713,9.292 -20.713,20.713 v 2.028 c 0,2.072 -0.807,4.021 -2.273,5.486 l -5.85,5.85 c -9.893,9.893 -15.341,23.047 -15.341,37.037 v 13.574 c 0,10.245 8.334,18.58 18.579,18.58 h 10.081 c 13.636,0 24.73,-11.094 24.73,-24.73 0,-2.379 0.926,-4.615 2.608,-6.297 l 5.169,-5.169 c 0.203,-0.203 0.414,-0.393 0.632,-0.574 0.167,0.195 0.334,0.389 0.518,0.574 l 19.932,19.932 c -3.833,3.911 -3.813,10.186 0.068,14.068 1.953,1.953 4.512,2.929 7.071,2.929 2.559,0 5.119,-0.976 7.071,-2.929 l 7,-7 c 3.905,-3.905 3.905,-10.237 0,-14.143 l -15.45,-15.45 c 8.875,0.156 17.197,3.677 23.489,9.97 l 9.953,9.952 c 9.844,9.844 15.266,22.934 15.266,36.856 v 0.817 H 233.04 c -20.062,0 -36.384,16.322 -36.384,36.384 V 245.8 c 0,19.377 15.765,35.142 35.142,35.142 h 3.493 c 3.778,0 6.852,3.073 6.852,6.851 v 29.475 c 0,15.167 5.906,29.425 16.63,40.15 l 4.591,4.591 c 5.118,5.118 7.937,11.923 7.937,19.161 0,7.705 3.001,14.948 8.451,20.396 5.446,5.443 12.685,8.44 20.384,8.44 0.004,0 0.01,0 0.015,0 C 311.648,410 321,400.644 321,389.149 v -0.614 c 0,-5.238 1.434,-10.374 4.146,-14.854 l 12.409,-20.502 c 0.005,-0.009 0.01,-0.018 0.016,-0.026 l 9.928,-16.517 c 5.591,-9.301 12.305,-17.918 19.955,-25.613 l 11.147,-11.213 c 4.428,-4.455 5.731,-11.08 3.319,-16.879 -2.412,-5.799 -8.029,-9.546 -14.31,-9.546 -0.702,0 -1.273,-0.571 -1.273,-1.273 v -11.464 c 0,-13.832 -5.386,-26.835 -15.167,-36.616 l -2.215,-2.215 c 10.49,1.524 20.173,6.357 27.804,13.988 l 7.969,7.969 c 6.141,6.141 14.207,9.211 22.272,9.211 8.065,0 16.132,-3.07 22.272,-9.211 6.024,-6.024 9.341,-14.033 9.341,-22.553 0,-8.519 -3.317,-16.528 -9.341,-22.553 l -3.3,-3.3 c -0.198,-0.198 -0.567,-0.567 -0.26,-1.308 0.307,-0.741 0.829,-0.741 1.109,-0.741 h 47.888 C 479.468,211.761 482,231.09 482,251 482,378.374 378.374,482 251,482 Z"
   id="path20" />

		<path
   style="fill:#333333"
   d="m 184,85 c 5.523,0 10,-4.477 10,-10 V 54.494 c 0,-5.523 -4.477,-10 -10,-10 -5.523,0 -10,4.477 -10,10 V 75 c 0,5.523 4.477,10 10,10 z"
   id="path22" />

		<path
   style="fill:#333333"
   d="m 450.39,314.63 c -5.176,-1.93 -10.935,0.702 -12.863,5.877 C 408.652,397.961 333.692,450 251,450 c -5.523,0 -10,4.477 -10,10 0,5.523 4.477,10 10,10 45.543,0 89.207,-13.849 126.272,-40.048 36.24,-25.617 63.556,-61.046 78.995,-102.458 1.929,-5.175 -0.702,-10.934 -5.877,-12.864 z"
   id="path24" />

		<path
   style="fill:#333333"
   d="m 202.433,444.034 c -9.714,-2.436 -19.321,-5.642 -28.554,-9.526 -5.092,-2.144 -10.954,0.249 -13.096,5.339 -2.142,5.09 0.249,10.954 5.339,13.096 10.167,4.278 20.747,7.808 31.445,10.491 0.817,0.205 1.635,0.303 2.44,0.303 4.478,0 8.554,-3.03 9.692,-7.57 1.344,-5.358 -1.909,-10.79 -7.266,-12.133 z"
   id="path26" />

	</g>

</g>
      <g
         id="g32">
</g>
      <g
         id="g34">
</g>
      <g
         id="g36">
</g>
      <g
         id="g38">
</g>
      <g
         id="g40">
</g>
      <g
         id="g42">
</g>
      <g
         id="g44">
</g>
      <g
         id="g46">
</g>
      <g
         id="g48">
</g>
      <g
         id="g50">
</g>
      <g
         id="g52">
</g>
      <g
         id="g54">
</g>
      <g
         id="g56">
</g>
      <g
         id="g58">
</g>
      <g
         id="g60">
</g>
    </g>
  </g>
  <g
     inkscape:groupmode="layer"
     id="layer2"
     inkscape:label="earthface"
     transform="translate(-6.9169647,-80.500046)">
    <path
       style="fill:#ed6185;fill-opacity:1;stroke:#333333;stroke-width:5.065;stroke-linecap:butt;stroke-linejoin:miter;stroke-miterlimit:4;stroke-dasharray:none;stroke-opacity:1"
       d="m 57.452382,218.65923 51.119198,-20.22158 c 2.22955,20.13664 -7.69154,29.3955 -18.036786,34.00427 C 66.223657,243.5283 57.452382,218.65923 57.452382,218.65923 Z"
       id="path98"
       sodipodi:nodetypes="cccc" />
    <circle
       style="fill:#ffffff;fill-opacity:1;stroke:#333333;stroke-width:5.065;stroke-miterlimit:4;stroke-dasharray:none;stroke-opacity:1"
       id="path923"
       cx="38.364582"
       cy="180.67262"
       r="14.552083" />
    <circle
       style="fill:#ffffff;fill-opacity:1;stroke:#333333;stroke-width:5.065;stroke-miterlimit:4;stroke-dasharray:none;stroke-opacity:1"
       id="path923-7"
       cx="91.470238"
       cy="157.99403"
       r="14.552083" />
    <circle
       style="fill:#ffffff;fill-opacity:1;stroke:#333333;stroke-width:5.065;stroke-miterlimit:4;stroke-dasharray:none;stroke-opacity:1"
       id="path940"
       cx="41.482887"
       cy="177.7433"
       r="2.3623512" />
    <circle
       style="fill:#ffffff;fill-opacity:1;stroke:#333333;stroke-width:5.065;stroke-miterlimit:4;stroke-dasharray:none;stroke-opacity:1"
       id="path940-9"
       cx="95.25"
       cy="154.40326"
       r="2.3623512" />
  </g>
  <g
     inkscape:groupmode="layer"
     id="layer3"
     inkscape:label="sat"
     transform="translate(-6.9169647,-80.500046)">
    <g
       id="g1141"
       transform="matrix(0.26458333,0,0,0.26458333,183.30958,80.500046)">
      <g
         id="g1043">
	<circle
   style="fill:#61ccf2"
   cx="337.26001"
   cy="79.959999"
   r="19.643"
   id="circle957" />

	<path
   style="fill:#ffffff"
   d="m 323.37,66.07 c 7.67,-7.67 20.11,-7.67 27.78,0 7.67,7.67 7.67,20.11 0,27.78"
   id="path959" />

	<polygon
   style="fill:#f24125"
   points="261.02,241.06 241.051,261.03 229.311,272.78 228.281,271.75 144.441,187.9 156.191,176.16 176.161,156.19 192.161,140.18 276.01,224.02 277.04,225.05 "
   id="polygon961" />

	<path
   style="fill:#f24125"
   d="m 308.54,135.72 c 10.51,21.13 7.79,47.16 -8.17,65.74 l -1.1,-0.7 -83.74,-83.73 c 18.46,-16 44.36,-18.86 65.49,-8.59 l 27.35,27.36 z"
   id="path963" />

	<polygon
   style="fill:#fcbc1d"
   points="384.391,331.62 412.21,359.44 359.43,412.21 331.62,384.4 332.33,383.69 383.68,332.33 "
   id="polygon965" />

	<polygon
   style="fill:#fcbc1d"
   points="331.62,384.4 303.09,355.87 303.8,355.16 355.16,303.81 355.87,303.1 384.391,331.62 383.68,332.33 332.33,383.69 "
   id="polygon967" />

	<polygon
   style="fill:#fcbc1d"
   points="303.09,355.87 274.57,327.35 275.28,326.63 326.63,275.28 327.34,274.57 355.87,303.1 355.16,303.81 303.8,355.16 "
   id="polygon969" />

	<polygon
   style="fill:#fcbc1d"
   points="274.57,327.35 246.751,299.53 263.15,283.12 283.12,263.15 299.52,246.75 327.34,274.57 326.63,275.28 275.28,326.63 "
   id="polygon971" />

	<polygon
   style="fill:#fcbc1d"
   points="89.881,142.66 90.59,141.94 141.941,90.59 142.661,89.88 170.471,117.69 154.071,134.1 134.101,154.07 117.691,170.47 "
   id="polygon973" />

	<polygon
   style="fill:#fcbc1d"
   points="89.881,142.66 61.351,114.13 62.061,113.41 113.411,62.06 114.131,61.35 142.661,89.88 141.941,90.59 90.59,141.94 "
   id="polygon975" />

	<polygon
   style="fill:#fcbc1d"
   points="61.351,114.13 32.821,85.6 33.531,84.88 84.881,33.53 85.601,32.82 114.131,61.35 113.411,62.06 62.061,113.41 "
   id="polygon977" />

	<polygon
   style="fill:#fcbc1d"
   points="57.781,5 85.601,32.82 84.881,33.53 33.531,84.88 32.821,85.6 5.001,57.78 "
   id="polygon979" />

	<g
   style="opacity:0.25"
   id="g997">
		<polygon
   points="331.62,384.4 332.33,383.69 383.68,332.33 384.391,331.62 359.43,412.21 "
   id="polygon981" />

		<polygon
   points="355.87,303.1 332.33,383.69 331.62,384.4 303.09,355.87 303.8,355.16 355.16,303.81 "
   id="polygon983" />

		<polygon
   points="327.34,274.57 303.8,355.16 303.09,355.87 274.57,327.35 275.28,326.63 326.63,275.28 "
   id="polygon985" />

		<polygon
   points="299.52,246.75 275.28,326.63 274.57,327.35 246.751,299.53 263.15,283.12 283.12,263.15 "
   id="polygon987" />

		<polygon
   points="89.881,142.66 90.59,141.94 141.941,90.59 142.661,89.88 117.691,170.47 "
   id="polygon989" />

		<polygon
   points="114.131,61.35 90.59,141.94 89.881,142.66 61.351,114.13 62.061,113.41 113.411,62.06 "
   id="polygon991" />

		<polygon
   points="85.601,32.82 62.061,113.41 61.351,114.13 32.821,85.6 33.531,84.88 84.881,33.53 "
   id="polygon993" />

		<polygon
   points="57.781,5 33.531,84.88 32.821,85.6 5.001,57.78 "
   id="polygon995" />

	</g>

	<polygon
   style="fill:#4a7984"
   points="202.801,299.29 117.921,214.42 144.441,187.9 228.281,271.75 229.311,272.78 "
   id="polygon999" />

	<path
   style="fill:#4a7984"
   d="m 299.27,200.76 1.1,0.7 c -0.99,1.16 -2.04,2.29 -3.14,3.39 l -20.19,20.2 -1.03,-1.03 -83.85,-83.84 20.2,-20.2 c 1.03,-1.03 2.09,-2.01 3.17,-2.95 z"
   id="path1001" />

	<path
   style="fill:#4a7984"
   d="m 377.71,39.51 c 23.44,23.43 23.44,61.43 0,84.87 -18.72,18.72 -46.73,22.47 -69.2,11.28 0.01,0.02 0.02,0.04 0.03,0.06 l -0.17,0.08 -27.35,-27.36 c 0.18,0.08 0.36,0.17 0.54,0.26 -11.19,-22.46 -7.45,-50.47 11.28,-69.19 23.43,-23.44 61.43,-23.44 84.87,0 z m -26.56,54.34 c 7.67,-7.67 7.67,-20.11 0,-27.78 -7.67,-7.67 -20.11,-7.67 -27.78,0 -7.67,7.67 -7.67,20.11 0,27.78 7.67,7.67 20.11,7.67 27.78,0 z"
   id="path1003" />

	<path
   style="fill:#333333"
   d="m 202.801,304.29 c -1.279,0 -2.559,-0.488 -3.535,-1.464 l -84.881,-84.87 c -0.938,-0.938 -1.465,-2.209 -1.465,-3.536 0,-1.327 0.526,-2.598 1.465,-3.536 l 94.44,-94.44 c 1.063,-1.062 2.214,-2.134 3.423,-3.186 16.828,-14.585 39.637,-19.368 60.549,-13.319 -6.489,-22.449 -0.459,-47.007 16.509,-63.965 12.274,-12.28 28.6,-19.043 45.966,-19.043 17.366,0 33.693,6.763 45.974,19.044 12.281,12.275 19.045,28.6 19.045,45.967 0,17.366 -6.764,33.693 -19.045,45.974 -12.491,12.492 -29.108,19.054 -45.965,19.056 -6.029,0 -12.084,-0.838 -17.998,-2.546 6.025,20.797 1.333,43.468 -13.119,60.292 -1.04,1.219 -2.187,2.457 -3.396,3.667 l -94.431,94.441 c -0.976,0.976 -2.256,1.464 -3.536,1.464 z m -77.809,-89.87 77.81,77.799 90.894,-90.904 c 1.025,-1.026 1.992,-2.069 2.873,-3.102 14.42,-16.788 17.358,-40.439 7.496,-60.267 -0.006,-0.012 -0.012,-0.023 -0.018,-0.035 l -0.029,-0.06 c -0.938,-1.925 -0.548,-4.234 0.974,-5.742 1.521,-1.508 3.835,-1.88 5.749,-0.926 21.202,10.559 46.693,6.402 63.436,-10.34 10.393,-10.392 16.115,-24.208 16.115,-38.903 0,-14.694 -5.723,-28.508 -16.115,-38.895 -10.393,-10.393 -24.208,-16.116 -38.903,-16.116 -14.694,0 -28.508,5.723 -38.896,16.115 -16.747,16.739 -20.902,42.227 -10.34,63.425 0.959,1.925 0.579,4.248 -0.942,5.768 -1.522,1.521 -3.846,1.896 -5.77,0.934 -0.113,-0.057 -0.226,-0.115 -0.339,-0.166 -0.051,-0.022 -0.101,-0.046 -0.15,-0.07 -19.83,-9.638 -43.393,-6.548 -60.03,7.872 -1.028,0.895 -2.01,1.809 -2.909,2.708 z"
   id="path1005" />

	<path
   style="fill:#ffffff"
   d="m 299.165,175.223 c -0.287,0 -0.579,-0.025 -0.872,-0.077 -2.72,-0.478 -4.536,-3.071 -4.059,-5.791 1.473,-8.37 0.264,-16.845 -3.496,-24.516 l -0.788,-1.467 c -3.919,-7.29 -9.909,-13.093 -17.322,-16.779 l -0.313,-0.149 c -2.493,-1.188 -3.552,-4.171 -2.365,-6.664 1.188,-2.492 4.173,-3.552 6.664,-2.364 l 0.391,0.186 c 9.354,4.649 16.85,11.911 21.756,21.037 l 0.911,1.704 c 4.734,9.609 6.26,20.24 4.413,30.744 -0.427,2.428 -2.538,4.136 -4.92,4.136 z m -56.789,-51.07 c -2.175,0 -4.177,-1.431 -4.805,-3.627 -0.759,-2.655 0.778,-5.422 3.434,-6.182 4.477,-1.279 9.109,-1.928 13.771,-1.928 2.762,0 5,2.239 5,5 0,2.761 -2.238,5 -5,5 -3.731,0 -7.439,0.519 -11.022,1.543 -0.46,0.131 -0.923,0.194 -1.378,0.194 z M 379.738,94.071 c -0.26,0 -0.523,-0.021 -0.788,-0.063 -2.728,-0.432 -4.588,-2.994 -4.156,-5.721 0.329,-2.077 0.496,-4.212 0.496,-6.345 0,-10.687 -4.163,-20.733 -11.722,-28.289 -2.889,-2.889 -6.16,-5.303 -9.724,-7.176 -2.445,-1.284 -3.386,-4.307 -2.101,-6.752 1.283,-2.445 4.309,-3.385 6.751,-2.101 4.457,2.342 8.543,5.355 12.145,8.957 9.447,9.444 14.65,22.002 14.65,35.36 0,2.656 -0.208,5.317 -0.619,7.91 -0.39,2.463 -2.515,4.22 -4.932,4.22 z M 341.24,42.319 c -0.217,0 -0.437,-0.014 -0.657,-0.043 -1.747,-0.23 -3.533,-0.346 -5.312,-0.346 -2.762,0 -5,-2.239 -5,-5 0,-2.761 2.238,-5 5,-5 2.212,0 4.438,0.145 6.614,0.431 2.738,0.36 4.666,2.872 4.306,5.609 -0.331,2.517 -2.479,4.349 -4.951,4.349 z"
   id="path1007" />

	<path
   style="fill:#333333"
   d="m 308.37,140.8 c -1.28,0 -2.56,-0.488 -3.536,-1.465 l -30.188,-30.199 c -1.953,-1.953 -1.953,-5.119 0,-7.071 1.951,-1.952 5.119,-1.952 7.07,0 l 30.19,30.201 c 1.952,1.953 1.952,5.119 -0.001,7.071 -0.976,0.975 -2.256,1.463 -3.535,1.463 z"
   id="path1009" />

	<path
   style="fill:#333333"
   d="m 228.281,276.75 c -1.279,0 -2.56,-0.488 -3.536,-1.465 l -83.84,-83.85 c -1.952,-1.953 -1.952,-5.119 0.001,-7.071 1.953,-1.952 5.118,-1.953 7.071,0 l 83.84,83.85 c 1.952,1.953 1.952,5.118 -0.001,7.071 -0.976,0.977 -2.255,1.465 -3.535,1.465 z"
   id="path1011" />

	<path
   style="fill:#333333"
   d="m 299.271,205.76 c -1.279,0 -2.559,-0.488 -3.535,-1.464 l -83.851,-83.84 c -1.953,-1.953 -1.953,-5.119 0,-7.071 1.951,-1.952 5.119,-1.952 7.07,0 l 83.851,83.84 c 1.953,1.953 1.953,5.118 0.001,7.071 -0.977,0.976 -2.257,1.464 -3.536,1.464 z"
   id="path1013" />

	<path
   style="fill:#333333"
   d="m 276.011,229.02 c -1.279,0 -2.559,-0.488 -3.535,-1.464 l -83.851,-83.84 c -1.953,-1.952 -1.953,-5.118 -0.001,-7.071 1.953,-1.953 5.118,-1.954 7.071,0 l 83.851,83.84 c 1.953,1.952 1.953,5.118 0.001,7.071 -0.977,0.976 -2.257,1.464 -3.536,1.464 z"
   id="path1015" />

	<path
   style="fill:#333333"
   d="m 337.26,104.592 c -6.311,0 -12.621,-2.402 -17.425,-7.207 -9.608,-9.608 -9.608,-25.243 -10e-4,-34.852 9.608,-9.607 25.243,-9.609 34.852,0 9.608,9.609 9.608,25.243 0,34.852 -4.804,4.805 -11.114,7.207 -17.426,7.207 z m 0.001,-39.269 c -3.751,0 -7.5,1.427 -10.355,4.282 -5.709,5.709 -5.709,15 0,20.709 5.712,5.711 15,5.709 20.71,0 5.709,-5.709 5.709,-15 -10e-4,-20.709 -2.854,-2.854 -6.605,-4.282 -10.354,-4.282 z"
   id="path1017" />

	<path
   style="fill:#333333"
   d="m 154.701,179.67 c -1.279,0 -2.56,-0.488 -3.535,-1.464 l -20.729,-20.728 c -1.959,-1.946 -1.97,-5.112 -0.024,-7.071 1.947,-1.96 5.112,-1.969 7.071,-0.025 l 0.141,0.14 20.611,20.612 c 1.953,1.953 1.953,5.119 0,7.071 -0.976,0.977 -2.256,1.465 -3.535,1.465 z"
   id="path1019" />

	<path
   style="fill:#333333"
   d="m 174.671,159.7 c -1.279,0 -2.56,-0.488 -3.535,-1.464 L 150.39,137.489 c -1.949,-1.956 -1.943,-5.122 0.013,-7.071 1.956,-1.949 5.121,-1.944 7.071,0.012 l 0.14,0.14 20.593,20.594 c 1.953,1.953 1.953,5.119 0,7.071 -0.977,0.977 -2.257,1.465 -3.536,1.465 z"
   id="path1021" />

	<path
   style="fill:#333333"
   d="m 262.421,287.39 c -1.279,0 -2.559,-0.488 -3.535,-1.464 l -20.159,-20.15 c -1.952,-1.952 -1.953,-5.118 -0.001,-7.071 1.953,-1.953 5.118,-1.954 7.071,-10e-4 l 20.159,20.15 c 1.952,1.952 1.953,5.118 10e-4,7.071 -0.978,0.977 -2.256,1.465 -3.536,1.465 z"
   id="path1023" />

	<path
   style="fill:#333333"
   d="m 282.391,267.42 c -1.279,0 -2.559,-0.488 -3.534,-1.463 l -20.16,-20.15 c -1.953,-1.952 -1.954,-5.118 -0.002,-7.071 1.951,-1.952 5.119,-1.954 7.07,-0.002 l 20.16,20.15 c 1.953,1.952 1.954,5.118 0.002,7.071 -0.976,0.976 -2.256,1.465 -3.536,1.465 z"
   id="path1025" />

	<path
   style="fill:#333333"
   d="m 117.691,175.47 c -1.279,0 -2.56,-0.488 -3.535,-1.464 L 1.466,61.316 C 0.527,60.378 0.001,59.106 0.001,57.78 c 0,-1.326 0.526,-2.598 1.465,-3.536 l 52.78,-52.78 c 1.951,-1.952 5.119,-1.952 7.07,0 l 112.69,112.69 c 1.952,1.952 1.953,5.117 0.001,7.07 l -36.371,36.381 c 0,0 0,0 -0.001,0.001 l -16.41,16.4 c -0.975,0.976 -2.254,1.464 -3.534,1.464 z M 12.072,57.78 117.692,163.4 163.401,117.691 57.781,12.071 Z m 122.03,96.29 h 0.01 z"
   id="path1027" />

	<path
   style="fill:#333333"
   d="m 359.431,417.21 c -1.279,0 -2.56,-0.488 -3.535,-1.464 L 243.215,303.066 c -1.952,-1.952 -1.953,-5.117 -0.001,-7.07 l 52.771,-52.781 c 1.951,-1.952 5.119,-1.952 7.07,0 l 84.87,84.87 v 0 l 27.819,27.82 c 0.938,0.938 1.465,2.21 1.465,3.536 0,1.326 -0.527,2.598 -1.465,3.536 l -52.779,52.77 c -0.975,0.975 -2.255,1.463 -3.534,1.463 z m -105.61,-117.681 105.61,105.61 45.708,-45.7 -105.618,-105.618 z"
   id="path1029" />

	<path
   style="fill:#333333"
   d="m 33.531,89.88 c -1.279,0 -2.56,-0.488 -3.535,-1.464 -1.953,-1.953 -1.953,-5.119 0,-7.071 l 51.35,-51.35 c 1.951,-1.952 5.119,-1.952 7.07,0 1.953,1.953 1.953,5.119 0,7.071 l -51.35,51.35 c -0.975,0.975 -2.255,1.464 -3.535,1.464 z"
   id="path1031" />

	<path
   style="fill:#333333"
   d="m 62.062,118.41 c -1.279,0 -2.56,-0.488 -3.535,-1.464 -1.953,-1.953 -1.953,-5.119 0,-7.071 l 51.35,-51.35 c 1.951,-1.952 5.119,-1.952 7.07,0 1.953,1.953 1.953,5.119 0,7.071 l -51.35,51.35 c -0.976,0.976 -2.256,1.464 -3.535,1.464 z"
   id="path1033" />

	<path
   style="fill:#333333"
   d="m 90.59,146.94 c -1.279,0 -2.56,-0.488 -3.535,-1.464 -1.953,-1.953 -1.953,-5.119 0,-7.071 l 51.351,-51.35 c 1.951,-1.952 5.119,-1.952 7.07,0 1.953,1.953 1.953,5.119 0,7.071 l -51.351,51.35 c -0.975,0.976 -2.255,1.464 -3.535,1.464 z"
   id="path1035" />

	<path
   style="fill:#333333"
   d="m 275.28,331.63 c -1.279,0 -2.56,-0.488 -3.535,-1.464 -1.953,-1.953 -1.953,-5.119 0,-7.071 l 51.35,-51.35 c 1.951,-1.952 5.119,-1.952 7.07,0 1.953,1.953 1.953,5.119 0,7.071 l -51.35,51.35 c -0.975,0.975 -2.255,1.464 -3.535,1.464 z"
   id="path1037" />

	<path
   style="fill:#333333"
   d="m 303.801,360.16 c -1.279,0 -2.56,-0.488 -3.536,-1.465 -1.952,-1.953 -1.952,-5.119 0.001,-7.071 l 51.359,-51.35 c 1.953,-1.952 5.118,-1.953 7.071,0 1.952,1.953 1.952,5.119 -0.001,7.071 l -51.359,51.35 c -0.977,0.977 -2.256,1.465 -3.535,1.465 z"
   id="path1039" />

	<path
   style="fill:#333333"
   d="m 332.33,388.69 c -1.279,0 -2.559,-0.488 -3.535,-1.464 -1.953,-1.952 -1.953,-5.118 -0.001,-7.071 l 51.351,-51.36 c 1.953,-1.953 5.118,-1.954 7.071,0 1.953,1.952 1.953,5.118 10e-4,7.071 l -51.351,51.36 c -0.975,0.976 -2.257,1.464 -3.536,1.464 z"
   id="path1041" />

</g>
      <g
         id="g1045">
</g>
      <g
         id="g1047">
</g>
      <g
         id="g1049">
</g>
      <g
         id="g1051">
</g>
      <g
         id="g1053">
</g>
      <g
         id="g1055">
</g>
      <g
         id="g1057">
</g>
      <g
         id="g1059">
</g>
      <g
         id="g1061">
</g>
      <g
         id="g1063">
</g>
      <g
         id="g1065">
</g>
      <g
         id="g1067">
</g>
      <g
         id="g1069">
</g>
      <g
         id="g1071">
</g>
      <g
         id="g1073">
</g>
    </g>
  </g>
  <g
     inkscape:groupmode="layer"
     id="layer4"
     inkscape:label="cam"
     transform="translate(-6.9169647,-80.500046)">
    <g
       id="g1302"
       transform="matrix(0.19860106,0,0,0.19860106,159.8191,113.45902)">
      <g
         id="g1233">
	<rect
   x="55.240002"
   y="326.35001"
   style="fill:#f5c525"
   width="38.903999"
   height="0"
   id="rect1205" />

	<rect
   x="94.910004"
   y="326.35001"
   style="fill:#efefef"
   width="231.19658"
   height="0.23082641"
   id="rect1207"
   ry="0" />

	<path
   style="fill:#eb7830"
   d="m 94.144,326.35 -0.25,-7.741 c -0.619,-19.139 -5.142,-29.114 -9.931,-39.676 -4.916,-10.86 -9.994,-22.081 -9.994,-44.144 0,-22.07 5.078,-33.29 9.988,-44.141 4.533,-9.991 8.808,-19.416 9.795,-36.617 l 0.433,-7.542 h 8.934 c 14.083,0 25.54,-11.457 25.54,-25.54 v -0.52 c 0,-14.083 11.457,-25.54 25.54,-25.54 h 106.98 c 14.083,0 25.54,11.457 25.54,25.54 v 0.52 c 0,14.083 11.457,25.54 25.54,25.54 h 78.02 v 179.86 H 94.144 Z M 207.69,150.31 c -39.971,0 -72.49,32.515 -72.49,72.479 0,39.972 32.519,72.49 72.49,72.49 2.665,0 24.058,0 24.058,0 l 19.261,-14.406 c 18.539,-13.866 29.171,-35.037 29.171,-58.084 0,-39.964 -32.519,-72.479 -72.49,-72.479 z m 109.539,36.15 0.011,36.699 h 36.7 v -36.7 h -36.7 c -0.008,0 -0.011,0.001 -0.011,0.001 z"
   id="path1209" />

	<path
   style="fill:#eb7830;fill-opacity:1"
   d="M 25.1,326.35 V 146.49 h 69.166 l -0.574,8.537 c -1.116,16.592 -5.487,26.25 -9.714,35.591 -5.152,11.36 -10.008,22.065 -10.008,44.172 0,22.088 4.856,32.804 9.997,44.148 4.522,9.981 9.198,20.302 9.907,39.11 l 0.313,8.302 z"
   id="path1211" />

	
	
	<rect
   x="317.23999"
   y="186.459"
   style="fill:#efefef"
   width="36.700001"
   height="36.700001"
   id="rect1217" />

	<path
   style="fill:#efefef"
   d="m 207.69,295.28 c -39.971,0 -72.49,-32.519 -72.49,-72.49 0,-39.965 32.519,-72.479 72.49,-72.479 39.971,0 72.49,32.515 72.49,72.479 0,39.971 -32.519,72.49 -72.49,72.49 z m 0,-107.52 c -19.321,0 -35.04,15.714 -35.04,35.029 0,19.321 15.719,35.041 35.04,35.041 19.321,0 35.04,-15.72 35.04,-35.041 0,-19.315 -15.719,-35.029 -35.04,-35.029 z"
   id="path1219" />

	<path
   style="fill:#3e81c8"
   d="m 207.69,257.831 c -19.321,0 -35.04,-15.72 -35.04,-35.041 0,-19.315 15.719,-35.029 35.04,-35.029 19.321,0 35.04,15.714 35.04,35.029 0,19.321 -15.719,35.041 -35.04,35.041 z"
   id="path1221" />

	<g
   id="g1231">
		<path
   style="fill:#231f20"
   d="M 390.28,138.49 H 25.1 c -4.41,0 -8,3.58 -8,8 v 179.86 c 0,4.42 3.59,8 8,8 h 365.18 c 4.41,0 8,-3.58 8,-8 V 146.49 c 0,-4.42 -3.59,-8 -8,-8 z m 0,0 h -78.02 c -9.67,0 -17.54,-7.87 -17.54,-17.54 v -0.52 c 0,-18.49 -15.05,-33.54 -33.54,-33.54 H 154.2 c -18.49,0 -33.54,15.05 -33.54,33.54 v 0.52 c 0,9.67 -17.54,17.54 -17.54,17.54 z m -303.37,0 c -455.76664,-249.57873 -227.88332,-124.789366 0,0 z M 33.1,318.35 V 154.49 h 52.61 c -1.02,15.16 -4.93,23.79 -9.03,32.85 -5.27,11.62 -10.71,23.64 -10.71,47.45 0,23.8 5.44,35.82 10.71,47.45 4.39,9.69 8.55,18.89 9.2,36.11 z m 69.81,16 c -466.43331,-380.152065 -233.21665,-190.07603 0,0 z m 279.37,-16 H 101.89 c -0.67,-20.71 -5.73,-31.89 -10.64,-42.72 -4.77,-10.54 -9.28,-20.5 -9.28,-40.84 0,-20.35 4.51,-30.31 9.28,-40.85 4.65,-10.25 9.42,-20.8 10.49,-39.45 h 1.38 c 18.49,0 33.54,-15.05 33.54,-33.54 v -0.52 c 0,-9.67 7.87,-17.54 17.54,-17.54 h 106.98 c 9.67,0 17.54,7.87 17.54,17.54 v 0.52 c 0,18.49 15.05,33.54 33.54,33.54 h 70.02 z"
   id="path1223"
   sodipodi:nodetypes="ccssccssccsssssssccccccccsccccccccsccsssssssscc" />

		<path
   style="fill:#231f20"
   d="m 207.69,179.76 c -23.73,0 -43.04,19.3 -43.04,43.03 0,23.74 19.31,43.04 43.04,43.04 23.73,0 43.04,-19.3 43.04,-43.04 0,-23.73 -19.31,-43.03 -43.04,-43.03 z m 0,70.07 c -14.91,0 -27.04,-12.13 -27.04,-27.04 0,-14.9 12.13,-27.03 27.04,-27.03 14.91,0 27.04,12.13 27.04,27.03 0,14.91 -12.13,27.04 -27.04,27.04 z"
   id="path1225" />

		<path
   style="fill:#231f20"
   d="m 353.94,178.46 h -36.7 c -4.42,0 -8,3.58 -8,8 v 36.7 c 0,4.42 3.58,8 8,8 h 36.7 c 4.42,0 8,-3.58 8,-8 v -36.7 c 0,-4.42 -3.58,-8 -8,-8 z m -8,36.7 h -20.7 v -20.7 h 20.7 z"
   id="path1227" />

		<path
   style="fill:#231f20"
   d="m 322.74,287.284 h -66.934 c 19.641,-14.691 32.378,-38.131 32.378,-64.489 0,-44.382 -36.107,-80.489 -80.489,-80.489 -44.382,0 -80.489,36.107 -80.489,80.489 0,44.382 36.107,80.489 80.489,80.489 H 322.74 c 4.418,0 8,-3.582 8,-8 0,-4.418 -3.582,-8 -8,-8 z m -115.045,0 c -35.56,0 -64.489,-28.93 -64.489,-64.489 0,-35.559 28.93,-64.489 64.489,-64.489 35.559,0 64.489,28.93 64.489,64.489 0,35.559 -28.93,64.489 -64.489,64.489 z"
   id="path1229" />

	</g>
<g
   inkscape:groupmode="layer"
   id="layer5"
   inkscape:label="lens" />

</g>
      <g
         id="g1235">
</g>
      <g
         id="g1237">
</g>
      <g
         id="g1239">
</g>
      <g
         id="g1241">
</g>
      <g
         id="g1243">
</g>
      <g
         id="g1245">
</g>
      <g
         id="g1247">
</g>
      <g
         id="g1249">
</g>
      <g
         id="g1251">
</g>
      <g
         id="g1253">
</g>
      <g
         id="g1255">
</g>
      <g
         id="g1257">
</g>
      <g
         id="g1259">
</g>
      <g
         id="g1261">
</g>
      <g
         id="g1263">
</g>
    </g>
  </g>
  <g
     inkscape:groupmode="layer"
     id="layer6"
     inkscape:label="arms"
     transform="translate(-6.9169647,-80.500046)">
    <path
       style="fill:#f24125;fill-opacity:1;stroke:#333333;stroke-width:1.965;stroke-linecap:butt;stroke-linejoin:miter;stroke-miterlimit:4;stroke-dasharray:none;stroke-opacity:1"
       d="m 243.70893,153.72348 c 0,0 10.27253,6.95742 6.53075,19.51909 -3.74177,12.56167 -6.41447,10.82442 -10.95805,11.09169 -4.54358,0.26727 -12.82894,-1.87089 -10.82441,-7.61718 2.00452,-5.7463 10.0226,-3.20724 10.0226,-3.20724 0,0 -3.20723,-2.80633 -2.80633,-4.54358 0.40091,-1.73725 6.54811,4.00904 6.54811,4.00904 0,0 4.27631,-2.00452 2.80633,-7.48354 -1.46999,-5.47903 -4.40995,-9.2208 -4.40995,-9.2208 z"
       id="path1526" />
    <path
       style="fill:none;stroke:#333333;stroke-width:1.265;stroke-linecap:butt;stroke-linejoin:miter;stroke-miterlimit:4;stroke-dasharray:none;stroke-opacity:1"
       d="m 235.74031,176.68367 -6.13049,-1.83748"
       id="path1528" />
    <path
       style="fill:none;stroke:#333333;stroke-width:1.165;stroke-linecap:butt;stroke-linejoin:miter;stroke-miterlimit:4;stroke-dasharray:none;stroke-opacity:1"
       d="m 234.77146,180.12476 -6.5314,-2.10474"
       id="path1530" />
    <path
       style="fill:#f24125;fill-opacity:1;stroke:#333333;stroke-width:1.965;stroke-linecap:butt;stroke-linejoin:miter;stroke-miterlimit:4;stroke-dasharray:none;stroke-opacity:1"
       d="m 163.96607,160.72549 c 0,0 6.42559,-0.0945 5.48066,5.38616 -0.94494,5.48066 -6.80358,4.44122 -6.80358,4.44122 0,0 -2.92931,1.13393 -5.48065,-4.06324 -2.55134,-5.19718 2.45684,-8.40997 4.8192,-9.44941 2.36235,-1.03943 6.42559,-0.37797 6.2366,1.32292 -0.18899,1.70089 -4.25223,2.36235 -4.25223,2.36235 z"
       id="path1532" />
    <path
       style="fill:none;stroke:#333333;stroke-width:0.865;stroke-linecap:butt;stroke-linejoin:miter;stroke-miterlimit:4;stroke-dasharray:none;stroke-opacity:1"
       d="m 164.31015,164.32007 4.87767,0.40091"
       id="path1544" />
    <path
       style="fill:none;stroke:#333333;stroke-width:0.865;stroke-linecap:butt;stroke-linejoin:miter;stroke-miterlimit:4;stroke-dasharray:none;stroke-opacity:1"
       d="m 163.03914,166.85614 5.2084,1.3931"
       id="path1544-8"
       sodipodi:nodetypes="cc" />
  </g>
</svg>
